<?xml version="1.0" encoding="UTF-8" standalone="no"?>
<svg
   xmlns:dc="http://purl.org/dc/elements/1.1/"
   xmlns:cc="http://creativecommons.org/ns#"
   xmlns:rdf="http://www.w3.org/1999/02/22-rdf-syntax-ns#"
   xmlns:svg="http://www.w3.org/2000/svg"
   xmlns="http://www.w3.org/2000/svg"
   xmlns:xlink="http://www.w3.org/1999/xlink"
   xmlns:sodipodi="http://sodipodi.sourceforge.net/DTD/sodipodi-0.dtd"
   xmlns:inkscape="http://www.inkscape.org/namespaces/inkscape"
   inkscape:version="1.0 (4035a4fb49, 2020-05-01)"
   sodipodi:docname="logo.svg"
   id="svg88"
   version="1.1"
   height="346.77151"
   width="337.854">
  <metadata
     id="metadata92">
    <rdf:RDF>
      <cc:Work
         rdf:about="">
        <dc:format>image/svg+xml</dc:format>
        <dc:type
           rdf:resource="http://purl.org/dc/dcmitype/StillImage" />
        <dc:title></dc:title>
      </cc:Work>
    </rdf:RDF>
  </metadata>
  <sodipodi:namedview
     inkscape:current-layer="svg88"
     inkscape:window-maximized="1"
     inkscape:window-y="150"
     inkscape:window-x="2391"
     inkscape:cy="214.01715"
     inkscape:cx="228.71497"
     inkscape:zoom="1.5026019"
     fit-margin-bottom="5"
     fit-margin-right="5"
     fit-margin-left="5"
     fit-margin-top="5"
     inkscape:pagecheckerboard="true"
     showgrid="false"
     id="namedview90"
     inkscape:window-height="1001"
     inkscape:window-width="1920"
     inkscape:pageshadow="2"
     inkscape:pageopacity="0"
     guidetolerance="10"
     gridtolerance="10"
     objecttolerance="10"
     borderopacity="1"
     bordercolor="#666666"
     pagecolor="#ffffff" />
  <path
     id="path52"
     d="m 8.394,179.78151 c 0,0 124.552,112.227 270.47,-0.31 0,0 8.688,75.38 -58.813,102.5 0,0 -16.887,41.62 -79.397,59.8 0,0 -43.733,-11.462 -74.396,-58.642 0,0.001 -63.343,-19.354 -57.864,-103.34 z"
     fill="#bcc1e2" />
  <g
     transform="translate(-178.611,-62.823488)"
     id="g66"
     fill="#efefef">
    <use
       height="100%"
       width="100%"
       y="0"
       x="0"
       id="use54"
       xlink:href="#B" />
    <use
       height="100%"
       width="100%"
       y="0"
       x="0"
       id="use56"
       xlink:href="#C" />
    <use
       height="100%"
       width="100%"
       y="0"
       x="0"
       id="use58"
       xlink:href="#B" />
    <use
       height="100%"
       width="100%"
       y="0"
       x="0"
       id="use60"
       xlink:href="#C" />
    <use
       height="100%"
       width="100%"
       y="0"
       x="0"
       id="use62"
       xlink:href="#B" />
    <path
       id="path64"
       d="m 262.633,237.82 a 34.17,34.17 0 0 1 4.664,-6.896 56.34,56.34 0 0 1 -4.664,6.896 z" />
  </g>
  <circle
     id="circle68"
     r="22.599001"
     cy="156.34851"
     cx="310.255"
     fill="#ffffff" />
  <path
     id="path70"
     d="m 332.849,156.34651 c 0,12.48 -10.1,22.6 -22.6,22.6 -12.5,0 -22.6,-10.12 -22.6,-22.6 a 18.73,18.73 0 0 1 0.101,-2 c 1,11.54 10.69,20.6 22.5,20.6 11.81,0 21.5,-9.06 22.5,-20.6 0.07,0.66 0.1,1.33 0.1,2 z"
     fill="#bcc1e2" />
  <path
     id="path72"
     d="m 8.875,145.71651 c 0,0 122.96,-63.014998 265.98,-1.747 0,0 0.12,0.355 -19.822,-28.07 0,0 15.31,3.2 42.545,19.12 0,0 -23.168,-128.4169977 -154.717,-115.741998 0,0 -81.844,43.56 -133.986,126.439998 z"
     fill="#ffffff" />
  <path
     id="path74"
     d="m 29.005,116.76351 c 0,0 122.3,-56.159998 270.053,19.782 0,0 -12.174,-141.0359977 -153.536,-131.0379977 0,0 -54.55,33.6699997 -116.517,111.2559977 z"
     fill="#ff002b" />
  <path
     id="path76"
     d="m 8.394,179.76951 c 0,0 124.552,107.345 270.47,-0.296 0,0 8.688,72.102 -58.813,98.032 0,0 -16.887,39.81 -79.397,57.2 0,0 -43.733,-10.963 -74.396,-56.09 0,0 -63.343,-18.513 -57.864,-98.845 z"
     fill="#ffffff" />
  <path
     id="path78"
     d="m 281.805,171.38651 -1.657,5.385 c -22.795,56.404 -46.477,73.07 -77.445,66.738 -15.084,-3.085 -23.074,-6.1 -39.9,-17.064 -8.864,-5.775 -13.874,-9.536 -20.918,-17.74 -7.43,8.3 -12.394,11.2 -21.48,17.346 -10.304,6.958 -21.508,13.763 -36.382,17.47 -29.7,7.404 -55.643,-17.494 -77.753,-64.416 -0.525,-1.115 -0.868,-2.334 -1.27,-3.52 9.543,11.844 23.31,19.268 38.615,19.268 15.558,0 29.526,-7.676 39.07,-19.855 1.71,-2.156 3.26,-4.46 4.664,-6.896 5.762,-6.662 13.915,-10.8 22.937,-10.8 3.235,0 6.362,0.527 9.304,1.527 11.67,3.932 20.478,15.056 22.107,28.674 -0.187,1.496 -0.28,3.037 -0.28,4.594 0,1.57 0.095,3.097 0.28,4.607 a 37.36,37.36 0 0 0 0.281,-4.607 37.32,37.32 0 0 0 -0.281,-4.594 c 1.7,-14.19 11.2,-25.695 23.618,-29.13 a 28.71,28.71 0 0 1 7.793,-1.07 c 9.665,0 18.325,4.756 24.127,12.254 0.828,1.35 1.71,2.67 2.634,3.934 0.013,0.014 0.026,0.043 0.054,0.06 9.556,13.016 24.006,21.307 40.18,21.307 17.04,-0.004 32.184,-9.22 41.7,-23.47 z"
     fill="#bcc1e2" />
  <path
     id="path80"
     d="m 141.699,187.50051 c 1.7,-14.19 11.2,-25.695 23.618,-29.13 a 28.71,28.71 0 0 1 7.793,-1.07 c 9.665,0 18.325,4.756 24.127,12.254 0.828,1.35 1.71,2.67 2.634,3.934 0.013,0.014 0.026,0.043 0.054,0.06 9.556,13.016 24.006,21.307 40.18,21.307 17.042,0 32.187,-9.216 41.703,-23.465 -0.508,1.82 -1.056,3.625 -1.657,5.385 -11.95,35.44 -42.426,60.638 -78.14,60.638 -12.657,0 -24.66,-3.17 -35.42,-8.833 -9.3,-4.903 -17.658,-11.667 -24.7,-19.87 -7.432,8.3 -16.24,15.012 -26.012,19.708 -10.08,4.842 -21.172,7.528 -32.828,7.528 -34.432,0 -63.985,-23.407 -76.777,-56.837 -0.44,-1.158 -0.868,-2.334 -1.27,-3.52 9.543,11.844 23.31,19.268 38.615,19.268 15.558,0 29.526,-7.676 39.07,-19.855 1.71,-2.156 3.26,-4.46 4.664,-6.896 5.762,-6.662 13.915,-10.8 22.937,-10.8 a 28.83,28.83 0 0 1 9.303,1.527 c 11.67,3.93 20.477,15.053 22.108,28.67"
     fill="#ffffff" />
  <path
     id="path82"
     d="m 256.385,117.82651 c 0,0 -41.327,-20.054998 -97.79,-20.477998 0,0 87.006,8.414998 116.26,46.619998 l -18.47,-26.143 z"
     fill="#bcc1e2" />
  <defs
     id="defs86">
    <path
       d="m 321.926,254.918 c 0,1.57 -0.094,3.097 -0.28,4.607 a 37.36,37.36 0 0 1 -0.28,-4.607 37.32,37.32 0 0 1 0.28,-4.594 37.32,37.32 0 0 1 0.28,4.594 z"
       id="B" />
    <path
       d="m 267.297,230.924 c -1.403,2.436 -2.954,4.74 -4.664,6.896 1.283,-2.508 2.86,-4.828 4.664,-6.896 z"
       id="C" />
  </defs>
</svg>
